<?xml version="1.0" encoding="utf-8"?>
<!-- Generator: Adobe Illustrator 25.0.1, SVG Export Plug-In . SVG Version: 6.00 Build 0)  -->
<svg version="1.1" id="Calque_1" xmlns="http://www.w3.org/2000/svg" xmlns:xlink="http://www.w3.org/1999/xlink" x="0px" y="0px"
	 viewBox="0 0 100 100" style="enable-background:new 0 0 100 100;" xml:space="preserve">
<style type="text/css">
	.st0{fill:#FFFFFF;}
</style>
<g id="instagram">
	<path class="st0" d="M80.96-0.16H19.62C8.96-0.16,0.29,8.51,0.29,19.16v20.41v40.94c0,10.66,8.67,19.32,19.33,19.32h61.35
		c10.66,0,19.33-8.67,19.33-19.32V39.58V19.16C100.29,8.51,91.62-0.16,80.96-0.16z M86.51,11.37l2.21-0.01v2.2v14.75l-16.9,0.05
		l-0.06-16.95L86.51,11.37z M36.02,39.58c3.2-4.43,8.4-7.34,14.27-7.34s11.07,2.91,14.27,7.34c2.09,2.89,3.34,6.43,3.34,10.26
		c0,9.7-7.9,17.6-17.6,17.6s-17.6-7.89-17.6-17.6C32.69,46.01,33.94,42.47,36.02,39.58z M90.55,80.52c0,5.29-4.3,9.58-9.58,9.58
		H19.62c-5.29,0-9.58-4.29-9.58-9.58V39.58h14.93c-1.29,3.17-2.02,6.63-2.02,10.26c0,15.07,12.26,27.35,27.34,27.35
		c15.08,0,27.34-12.27,27.34-27.35c0-3.63-0.73-7.09-2.02-10.26h14.93V80.52z"/>
</g>
</svg>
