<?xml version="1.0" encoding="utf-8"?>
<!-- Generator: Adobe Illustrator 25.0.1, SVG Export Plug-In . SVG Version: 6.00 Build 0)  -->
<svg version="1.1" id="Calque_1" xmlns="http://www.w3.org/2000/svg" xmlns:xlink="http://www.w3.org/1999/xlink" x="0px" y="0px"
	 viewBox="0 0 100 100" style="enable-background:new 0 0 100 100;" xml:space="preserve">
<style type="text/css">
	.st0{fill:#FFFFFF;}
</style>
<g id="twitter">
	<g>
		<g>
			<path class="st0" d="M100.17,16.31c-3.7,1.79-7.63,2.94-11.8,3.48c4.25-2.73,7.51-7.04,9.05-12.2
				c-3.97,2.52-8.37,4.32-13.06,5.37c-3.73-4.31-9.08-7-14.97-7c-11.33,0-20.51,9.88-20.51,22.09c0,1.71,0.18,3.41,0.52,5.01
				c-17.02-0.88-32.16-9.71-42.28-23.04c-1.76,3.25-2.76,7.04-2.76,11.1c0,7.64,3.62,14.45,9.13,18.35
				c-3.37-0.14-6.53-1.08-9.3-2.75c0,0.09,0,0.2,0,0.3c0,10.68,7.07,19.6,16.45,21.66c-1.72,0.5-3.54,0.73-5.42,0.73
				c-1.32,0-2.57-0.09-3.84-0.39c2.6,8.81,10.18,15.2,19.16,15.34c-7.02,5.95-15.87,9.45-25.48,9.45c-1.66,0-3.3-0.1-4.9-0.31
				c9.08,6.3,19.84,9.96,31.45,9.96C69.36,93.46,90,59.79,90,30.61c0-0.93-0.02-1.88-0.07-2.83
				C93.94,24.63,97.42,20.73,100.17,16.31z"/>
		</g>
	</g>
</g>
</svg>
