<?xml version="1.0" encoding="utf-8"?>
<!-- Generator: Adobe Illustrator 25.0.1, SVG Export Plug-In . SVG Version: 6.00 Build 0)  -->
<svg version="1.1" id="Calque_1" xmlns="http://www.w3.org/2000/svg" xmlns:xlink="http://www.w3.org/1999/xlink" x="0px" y="0px"
	 viewBox="0 0 100 100" style="enable-background:new 0 0 100 100;" xml:space="preserve">
<style type="text/css">
	.st0{fill:#FFFFFF;}
</style>
<g id="linkedin">
	<path class="st0" d="M22,95.7H2.51V33.32H22V95.7z M11.76,25.52h-0.14c-7.05,0-11.63-4.77-11.63-10.81
		c0-6.16,4.71-10.83,11.91-10.83c7.19,0,11.61,4.66,11.75,10.81C23.65,20.73,19.08,25.52,11.76,25.52z M99.99,95.7h-22.1V63.42
		c0-8.45-3.45-14.21-11.06-14.21c-5.82,0-9.05,3.89-10.55,7.64c-0.56,1.34-0.48,3.22-0.48,5.1V95.7H33.9c0,0,0.28-57.18,0-62.38
		h21.9v9.79c1.29-4.28,8.29-10.39,19.46-10.39c13.85,0,24.73,8.97,24.73,28.29V95.7z"/>
</g>
</svg>
